<svg xmlns="http://www.w3.org/2000/svg" viewBox="0 0 43.67 50.94"><defs><style>.cls-1{fill:#793109;}.cls-2{fill:#064e3b;}</style></defs><g id="Layer_2" data-name="Layer 2"><g id="Layer_1-2" data-name="Layer 1"><path class="cls-1" d="M43.67,36.86a12.39,12.39,0,0,1-2.2,7.31A14.09,14.09,0,0,1,35.37,49l-.11-.16L29,40.21,28.8,40a3.94,3.94,0,0,0,.86-.49,4.82,4.82,0,0,0,1.7-4.14,4.82,4.82,0,0,0-1.7-4.14C28.54,30.37,26.65,30,24,30H21.46l-7.33-10h8.59c2.49,0,4.32-.38,5.47-1.15a4.1,4.1,0,0,0,1.73-3.67,4.44,4.44,0,0,0-1.73-3.89C27,10.41,25.21,10,22.72,10H13.28v8.78l0-.05L1.31,2.43A4.56,4.56,0,0,1,2,1.58,6.17,6.17,0,0,1,6.52,0H25q8,0,12.71,3.56a11.43,11.43,0,0,1,4.71,9.61,11.66,11.66,0,0,1-2.09,6.88,11.81,11.81,0,0,1-5.83,4.35A12.91,12.91,0,0,1,41.29,29,12.81,12.81,0,0,1,43.67,36.86Z"/><path class="cls-2" d="M33.68,50.19a8.56,8.56,0,0,1-3.88.75H6.12a6.12,6.12,0,0,1-4.54-1.59A6.2,6.2,0,0,1,0,44.75V6.3A7.69,7.69,0,0,1,.2,4.46l13,17.81V40.21H26.38Z"/></g></g></svg>
